<svg width="501" height="622" viewBox="0 0 501 622" fill="none" xmlns="http://www.w3.org/2000/svg"><g opacity=".3"><path d="M199.156 216.67l-99.52-57.495L.001 216.67l99.635 57.495 99.52-57.495z" fill="#4D4DD6"/><path d="M99.635 274.664L0 217.169v114.99l99.635 57.495v-114.99z" fill="#2D2D88"/><path d="M99.634 274.664v114.99l99.52-57.38V217.169l-99.52 57.495z" fill="#4141BA"/><path d="M398.54 217.169l99.636-57.495v114.99l-99.636-57.495z" fill="#4D4DD6"/><path d="M498.176 274.716v114.991l-99.635-57.38V217.221l99.635 57.495zM298.789 159.495v114.99l-99.519-57.379V103.963l-.116-1.963 99.635 57.495z" fill="#2D2D88"/><path d="M298.79 159.442l-99.635-57.495L498.753-71l-.693 115.567-199.27 114.875z" fill="#4D4DD6"/><path d="M298.79 274.433v-114.99l96.287-55.533 103.099-59.342v115.106L298.79 274.433z" fill="#4141BA"/><path d="M199.155 331.661l99.635-57.495 200.194 115.336v115.222L199.155 331.661z" fill="#4D4DD6"/><path d="M199.154 332.211l299.598 172.947 1.848 116.26-301.33-173.87-.116-115.337z" fill="#2D2D88"/></g></svg>