<svg width="26" height="26" viewBox="0 0 26 26" fill="none" xmlns="http://www.w3.org/2000/svg"><circle cx="12.999" cy="12.571" r="11.571" stroke="#C4C4C4" stroke-width="2"/><path d="M12.892 14.656a4.46 4.46 0 01-2.496-.766 4.532 4.532 0 01-1.655-2.038 4.588 4.588 0 01-.256-2.625 4.557 4.557 0 011.23-2.325 4.48 4.48 0 012.3-1.243 4.45 4.45 0 012.597.258 4.505 4.505 0 012.016 1.673 4.577 4.577 0 01-.558 5.735 4.47 4.47 0 01-3.178 1.33zm0-6.715c-.425 0-.84.128-1.194.366a2.167 2.167 0 00-.791.975 2.193 2.193 0 00.465 2.368 2.127 2.127 0 002.342.47c.393-.164.729-.442.965-.8a2.19 2.19 0 00-.267-2.743 2.137 2.137 0 00-1.52-.636zM21.586 21.571a14.549 14.549 0 00-8.655-2.86 14.549 14.549 0 00-8.655 2.86l-1.27-1.975a16.894 16.894 0 019.935-3.235c3.565 0 7.04 1.132 9.935 3.235l-1.29 1.975z" fill="#C4C4C4"/></svg>