<svg width="101" height="36" viewBox="0 0 101 36" fill="none" xmlns="http://www.w3.org/2000/svg"><path d="M8.179 24.793v-7.127a3.292 3.292 0 00-1.577.447l-4.937 2.893A3.404 3.404 0 000 23.938v5.79a3.39 3.39 0 001.665 2.927l4.937 2.892a3.29 3.29 0 003.331 0l4.937-2.892a3.365 3.365 0 001.235-1.263l-6.26-3.666a3.414 3.414 0 01-1.666-2.933z" fill="#EA6CA0"/><path d="M35.243 21.006l-4.937-2.893a3.292 3.292 0 00-1.576-.447v7.127a3.39 3.39 0 01-1.666 2.928l-6.26 3.666c.287.519.709.956 1.234 1.263l4.937 2.892a3.29 3.29 0 003.33 0l4.938-2.892a3.39 3.39 0 001.665-2.927v-5.785a3.393 3.393 0 00-1.665-2.932z" fill="#6BEDD4"/><path d="M20.125 9.663l6.344 3.717c.169-.408.263-.855.263-1.313v-5.79a3.39 3.39 0 00-1.665-2.927L20.125.453a3.29 3.29 0 00-3.331 0l-4.937 2.892a3.39 3.39 0 00-1.666 2.927v5.79c0 .458.094.905.263 1.313l6.345-3.717a3.293 3.293 0 013.326.005z" fill="#EA9D13"/><path d="M16.546 23.938a3.39 3.39 0 00-1.666-2.928l-4.937-2.892a3.318 3.318 0 00-1.76-.447v7.127a3.39 3.39 0 001.666 2.928l6.26 3.666a3.427 3.427 0 00.437-1.665v-5.79zM28.73 24.793v-7.127a3.33 3.33 0 00-1.76.447l-4.937 2.892a3.39 3.39 0 00-1.665 2.928v5.79c0 .593.153 1.167.436 1.664l6.26-3.666a3.39 3.39 0 001.666-2.928zM11.852 14.995l4.937 2.892a3.29 3.29 0 003.33 0l4.938-2.893a3.348 3.348 0 001.402-1.614l-6.344-3.717a3.29 3.29 0 00-3.331 0l-6.345 3.717a3.467 3.467 0 001.413 1.614zM56.334 8.496c-.922 0-1.755.573-2.097 1.443l-3.906 9.965a.413.413 0 01-.381.267.413.413 0 01-.382-.267l-3.916-10.07a2.077 2.077 0 00-1.938-1.338h-4.347l7.703 18.993v.07c-.63 1.349-1.502 1.922-2.925 1.922a4.708 4.708 0 01-2.726-.895l-1.303 2.711c-.347.72-.035 1.59.693 1.896 1.071.453 2.365.73 3.58.73 1.932 0 3.469-.433 4.738-1.379 1.319-.985 2.344-2.525 3.217-4.738L60.1 8.501h-3.767v-.005zM77.807 16.931v-3.777h-4.203c-.754 0-1.363.618-1.363 1.383v2.394a.413.413 0 01-.412.418h-4.853a.4.4 0 01-.361-.227.445.445 0 01.024-.437l9.285-13.758H71.14c-.768 0-1.487.378-1.928 1.012l-9.324 13.4a2.77 2.77 0 00-.495 1.579v3.119H71.62c.228 0 .411.186.411.417v4.31h5.77v-4.3c0-.231.188-.422.416-.422h3.133v-4.688H78.21a.42.42 0 01-.402-.423zM92.187 22.072a.406.406 0 01-.382-.272.443.443 0 01.104-.468l4.51-4.3c3.277-3.109 3.932-5.181 3.932-7.515 0-4.306-3.485-7.087-8.883-7.087-.996 0-1.943.095-2.835.281-1.036.217-2.008.73-2.687 1.555-2.102 2.55.506 5.22.506 5.22 1.011-1.443 2.597-2.263 4.397-2.263 2.215 0 3.484 1.082 3.484 2.963 0 1.242-.391 2.45-2.315 4.296l-7.128 6.876a5.56 5.56 0 00-1.69 4.003v1.394h17.795v-4.688h-8.808v.005z" fill="#fff"/></svg>